<?xml version="1.0" standalone="no"?>
<!DOCTYPE svg PUBLIC "-//W3C//DTD SVG 20010904//EN"
 "http://www.w3.org/TR/2001/REC-SVG-20010904/DTD/svg10.dtd">
<svg version="1.0" xmlns="http://www.w3.org/2000/svg"
 width="96.000000pt" height="96.000000pt" viewBox="0 0 96.000000 96.000000"
 preserveAspectRatio="xMidYMid meet">

<g transform="translate(0.000000,96.000000) scale(0.100000,-0.100000)"
fill="#000000" stroke="none">
<path d="M719 542 c-5 -49 -3 -53 26 -41 19 7 19 8 1 8 -16 1 -17 3 -5 18 8
10 9 14 2 10 -8 -5 -13 2 -15 20 -3 22 -5 19 -9 -15z"/>
<path d="M72 524 c-13 -43 -8 -60 7 -23 10 23 10 23 11 -6 1 -29 1 -29 15 -11
8 11 15 25 14 30 0 6 -3 4 -6 -4 -4 -10 -10 -4 -18 19 l-11 33 -12 -38z"/>
<path d="M120 551 c0 -6 5 -13 10 -16 6 -3 10 1 10 9 0 9 -4 16 -10 16 -5 0
-10 -4 -10 -9z"/>
<path d="M290 528 c0 -30 0 -31 -20 -13 -20 18 -20 17 -19 -11 1 -18 3 -22 6
-11 5 18 6 18 24 1 18 -17 19 -16 19 24 0 23 -2 42 -5 42 -3 0 -5 -14 -5 -32z"/>
<path d="M332 548 c-17 -17 -15 -55 4 -62 8 -3 12 -2 9 3 -3 5 -1 12 5 16 5 3
10 0 10 -7 0 -10 3 -9 9 2 13 20 3 32 -20 25 -24 -8 -25 10 -1 24 9 6 12 11 7
11 -6 0 -16 -5 -23 -12z"/>
<path d="M667 553 c-24 -4 -26 -8 -21 -31 9 -35 7 -34 35 -23 21 9 22 10 4 11
l-20 1 20 9 c18 8 18 9 -5 10 -25 1 -25 1 -2 10 12 5 22 12 22 15 0 3 -1 4 -2
4 -2 -1 -15 -4 -31 -6z"/>
<path d="M181 520 c-12 -17 -26 -28 -32 -25 -5 4 -9 1 -9 -4 0 -14 27 -14 35
-1 3 6 15 10 26 10 10 0 19 -4 19 -10 0 -5 4 -10 9 -10 5 0 4 15 -2 35 -6 19
-13 35 -17 35 -3 0 -16 -14 -29 -30z"/>
<path d="M424 538 c-4 -7 -14 -24 -23 -38 -11 -19 -11 -22 -1 -12 8 6 22 12
31 12 10 0 19 -6 22 -12 9 -27 14 -2 5 30 -9 33 -22 41 -34 20z m26 -18 c0 -5
-4 -10 -10 -10 -5 0 -10 5 -10 10 0 6 5 10 10 10 6 0 10 -4 10 -10z"/>
<path d="M590 535 c-10 -12 -8 -16 11 -24 21 -8 22 -10 7 -16 -9 -4 -23 -3
-30 1 -10 5 -10 4 -1 -6 10 -11 18 -11 38 -2 26 12 26 32 -1 32 -17 0 -19 16
-1 23 7 4 8 6 1 6 -6 1 -17 -6 -24 -14z"/>
<path d="M802 520 c-24 -31 -30 -52 -10 -32 15 15 48 16 48 2 0 -5 4 -10 9
-10 5 0 4 15 -2 35 -6 19 -13 35 -17 35 -3 0 -16 -13 -28 -30z"/>
<path d="M871 528 c0 -7 4 -22 9 -33 7 -17 9 -15 9 13 1 17 -3 32 -9 32 -5 0
-10 -6 -9 -12z"/>
<path d="M510 520 c-21 -7 -21 -8 -5 -9 11 0 27 4 35 9 18 11 5 11 -30 0z"/>
<path d="M273 439 c3 -12 3 -18 0 -15 -7 7 -32 -24 -33 -39 0 -5 5 -3 11 5 8
11 12 12 16 3 5 -15 43 -18 43 -4 0 5 3 17 6 25 5 12 2 15 -12 10 -18 -5 -18
-5 -1 6 25 16 21 30 -9 30 -22 0 -25 -4 -21 -21z"/>
<path d="M355 450 c11 -5 14 -9 8 -9 -7 -1 -14 -13 -14 -28 l-1 -28 -8 30 -8
30 -1 -32 c-1 -33 0 -33 44 -33 44 0 45 0 44 33 l-1 32 -8 -30 -8 -30 -1 28
c0 15 -7 27 -13 28 -7 1 -2 5 12 9 21 7 17 8 -20 8 -34 1 -40 -2 -25 -8z"/>
<path d="M560 453 c0 -6 -8 -14 -17 -16 -17 -4 -17 -5 0 -6 9 0 17 -8 17 -16
0 -22 37 -18 43 4 6 24 -8 50 -16 30 -4 -12 -7 -11 -16 1 -6 9 -11 10 -11 3z
m30 -33 c0 -5 -4 -10 -10 -10 -5 0 -10 5 -10 10 0 6 5 10 10 10 6 0 10 -4 10
-10z"/>
<path d="M633 416 c2 -42 17 -56 17 -15 0 14 7 19 25 19 18 0 25 5 25 20 0 16
-7 20 -35 20 -34 0 -34 0 -32 -44z m27 24 c0 -5 -4 -10 -10 -10 -5 0 -10 5
-10 10 0 6 5 10 10 10 6 0 10 -4 10 -10z m30 0 c0 -5 -4 -10 -10 -10 -5 0 -10
5 -10 10 0 6 5 10 10 10 6 0 10 -4 10 -10z"/>
<path d="M671 394 c0 -11 3 -14 6 -6 3 7 2 16 -1 19 -3 4 -6 -2 -5 -13z"/>
<path d="M553 383 c9 -2 25 -2 35 0 9 3 1 5 -18 5 -19 0 -27 -2 -17 -5z"/>
</g>
</svg>
